<svg width="18" height="19" viewBox="0 0 18 19" fill="none" xmlns="http://www.w3.org/2000/svg">
<path fill-rule="evenodd" clip-rule="evenodd" d="M8.29289 0.292893C8.68342 -0.0976311 9.31658 -0.0976311 9.70711 0.292893L14.7071 5.29289C15.0976 5.68342 15.0976 6.31658 14.7071 6.70711C14.3166 7.09763 13.6834 7.09763 13.2929 6.70711L10 3.41421V13C10 13.5523 9.55229 14 9 14C8.44772 14 8 13.5523 8 13V3.41421L4.70711 6.70711C4.31658 7.09763 3.68342 7.09763 3.29289 6.70711C2.90237 6.31658 2.90237 5.68342 3.29289 5.29289L8.29289 0.292893ZM1 13C1.55228 13 2 13.4477 2 14V16C2 16.2652 2.10536 16.5196 2.29289 16.7071C2.48043 16.8946 2.73478 17 3 17H15C15.2652 17 15.5196 16.8946 15.7071 16.7071C15.8946 16.5196 16 16.2652 16 16V14C16 13.4477 16.4477 13 17 13C17.5523 13 18 13.4477 18 14V16C18 16.7957 17.6839 17.5587 17.1213 18.1213C16.5587 18.6839 15.7957 19 15 19H3C2.20435 19 1.44129 18.6839 0.87868 18.1213C0.31607 17.5587 0 16.7957 0 16V14C0 13.4477 0.447715 13 1 13Z" fill="white"/>
</svg>
