<svg width="18" height="18" viewBox="0 0 18 18" fill="none" xmlns="http://www.w3.org/2000/svg">
<path fill-rule="evenodd" clip-rule="evenodd" d="M4.42509 1.22041C6.15344 0.221927 8.16214 -0.180602 10.1418 0.074834C12.1214 0.33027 13.9621 1.2295 15.3804 2.634C16.7987 4.03851 17.7159 5.87037 17.9906 7.84741C18.0666 8.39444 17.6848 8.89952 17.1378 8.97554C16.5907 9.05156 16.0857 8.66973 16.0096 8.12271C15.7953 6.58018 15.0797 5.15093 13.9731 4.05511C12.8665 2.95928 11.4304 2.25769 9.88582 2.05839C8.34128 1.85909 6.77405 2.17315 5.42556 2.95219C4.53828 3.46479 3.77809 4.15997 3.19127 4.98506H5.00012C5.55241 4.98506 6.00012 5.43277 6.00012 5.98506C6.00012 6.53734 5.55241 6.98506 5.00012 6.98506H1.52249C1.50734 6.98541 1.49216 6.98541 1.47695 6.98506H1.00012C0.447838 6.98506 0.000122579 6.53734 0.000122579 5.98506V1.98506C0.000122579 1.43277 0.447838 0.985059 1.00012 0.985059C1.55241 0.985059 2.00012 1.43277 2.00012 1.98506V3.25792C2.67868 2.44754 3.49773 1.75616 4.42509 1.22041ZM0.862474 8.99458C1.4095 8.91856 1.91458 9.30039 1.9906 9.84741C2.20497 11.3899 2.92056 12.8192 4.02713 13.915C5.13371 15.0108 6.56988 15.7124 8.11442 15.9117C9.65897 16.111 11.2262 15.797 12.5747 15.0179C13.462 14.5053 14.2222 13.8102 14.809 12.9851H13.0001C12.4478 12.9851 12.0001 12.5373 12.0001 11.9851C12.0001 11.4328 12.4478 10.9851 13.0001 10.9851H16.4778C16.4929 10.9847 16.5081 10.9847 16.5233 10.9851H17.0001C17.5524 10.9851 18.0001 11.4328 18.0001 11.9851V15.9851C18.0001 16.5373 17.5524 16.9851 17.0001 16.9851C16.4478 16.9851 16.0001 16.5373 16.0001 15.9851V14.7122C15.3216 15.5226 14.5025 16.214 13.5752 16.7497C11.8468 17.7482 9.83811 18.1507 7.85848 17.8953C5.87885 17.6399 4.03812 16.7406 2.61984 15.3361C1.20155 13.9316 0.284393 12.0997 0.00964144 10.1227C-0.0663798 9.57568 0.315446 9.0706 0.862474 8.99458Z" fill="white"/>
</svg>
