<svg width="24" height="24" viewBox="0 0 24 24" fill="none" xmlns="http://www.w3.org/2000/svg">
<path fill-rule="evenodd" clip-rule="evenodd" d="M2.29289 2.29289C2.68342 1.90237 3.31658 1.90237 3.70711 2.29289L17.9836 16.5693C18.0386 16.6136 18.0896 16.6643 18.1353 16.7211L21.7071 20.2929C22.0976 20.6834 22.0976 21.3166 21.7071 21.7071C21.3166 22.0976 20.6834 22.0976 20.2929 21.7071L17.2061 18.6203C15.6047 19.5368 13.8653 20.0001 12 20.0001C7.51999 20.0001 3.9072 17.353 1.13177 12.4962C0.956057 12.1887 0.956079 11.8113 1.13182 11.5038C2.30973 9.44312 3.63697 7.77716 5.12712 6.54134L2.29289 3.70711C1.90237 3.31658 1.90237 2.68342 2.29289 2.29289ZM6.54865 7.96286C5.34566 8.92596 4.2122 10.2613 3.15993 12.0002C5.65785 16.1306 8.61281 18.0001 12 18.0001C13.3253 18.0001 14.5639 17.7158 15.7281 17.1423L13.2939 14.7081C12.8928 14.9002 12.4501 15.0026 11.9969 15.0024C11.2011 15.0022 10.4381 14.6858 9.87561 14.1229C9.31312 13.56 8.99728 12.7967 8.99756 12.001C8.99772 11.5485 9.10009 11.1066 9.29187 10.7061L6.54865 7.96286ZM11.2356 12.6498C11.253 12.6703 11.2712 12.6901 11.2903 12.7092C11.3096 12.7285 11.3296 12.7469 11.3502 12.7644L11.2356 12.6498ZM11.9965 6.00005C11.1989 5.99723 10.4049 6.10713 9.63803 6.32649C9.10705 6.47839 8.55346 6.17108 8.40157 5.64009C8.24967 5.10911 8.55698 4.55552 9.08797 4.40362C10.0354 4.1326 11.0164 3.99674 12.0018 4.00006C16.481 4.00076 20.0932 6.64779 22.8682 11.5039C23.0439 11.8114 23.0439 12.1889 22.8682 12.4963C22.0598 13.9105 21.1827 15.1375 20.2314 16.1668C19.8565 16.5724 19.2238 16.5973 18.8182 16.2224C18.4127 15.8476 18.3878 15.2149 18.7626 14.8093C19.486 14.0266 20.1793 13.0921 20.8401 12C18.3422 7.86951 15.3872 6.00006 12 6.00006L11.9965 6.00005Z" fill="#898F9D"/>
</svg>
