<svg width="18" height="19" viewBox="0 0 18 19" fill="none" xmlns="http://www.w3.org/2000/svg">
<path fill-rule="evenodd" clip-rule="evenodd" d="M9 0C9.55229 0 10 0.447715 10 1V10.5858L13.2929 7.29289C13.6834 6.90237 14.3166 6.90237 14.7071 7.29289C15.0976 7.68342 15.0976 8.31658 14.7071 8.70711L9.70711 13.7071C9.31658 14.0976 8.68342 14.0976 8.29289 13.7071L3.29289 8.70711C2.90237 8.31658 2.90237 7.68342 3.29289 7.29289C3.68342 6.90237 4.31658 6.90237 4.70711 7.29289L8 10.5858V1C8 0.447715 8.44772 0 9 0ZM1 13C1.55228 13 2 13.4477 2 14V16C2 16.2652 2.10536 16.5196 2.29289 16.7071C2.48043 16.8946 2.73478 17 3 17H15C15.2652 17 15.5196 16.8946 15.7071 16.7071C15.8946 16.5196 16 16.2652 16 16V14C16 13.4477 16.4477 13 17 13C17.5523 13 18 13.4477 18 14V16C18 16.7957 17.6839 17.5587 17.1213 18.1213C16.5587 18.6839 15.7957 19 15 19H3C2.20435 19 1.44129 18.6839 0.87868 18.1213C0.31607 17.5587 0 16.7957 0 16V14C0 13.4477 0.447715 13 1 13Z" fill="white"/>
</svg>
